<svg width="89" height="31" viewBox="0 0 89 31" fill="none" xmlns="http://www.w3.org/2000/svg">
<path d="M2 5.45692C4.32 5.45692 8.98 4.79692 12.985 3.46192C22.7792 0.197174 41.3 3.11692 46.315 5.28192C51.7053 7.60895 56.64 8.11692 61.15 10.4469C65.99 13.1169 69.98 15.7769 75.31 18.2769C76.98 19.4369 78.96 21.4169 81 23.4569" stroke="#FE92CD" stroke-width="4" stroke-linecap="round"/>
<path d="M81 10.4569C81.33 13.4369 82.66 19.4369 83.165 23.4419C83.2924 24.4524 83.66 25.4369 83.17 26.2769C82.68 27.1169 81.36 27.7769 78.865 28.1169C76.37 28.4569 72.74 28.4569 69 28.4569" stroke="#FE92CD" stroke-width="4" stroke-linecap="round"/>
<path d="M81 8.45692C81 11.7669 82.32 18.4369 83.995 22.4419C84.8064 24.382 85.99 25.7869 86.17 26.2869C82.72 26.4569 79.01 26.7869 76.355 27.2869C74.69 27.4569 72.38 27.4569 70 27.4569" stroke="#FE92CD" stroke-width="4" stroke-linecap="round"/>
</svg>
