<svg width="226" height="91" viewBox="0 0 226 91" fill="none" xmlns="http://www.w3.org/2000/svg">
<path d="M2.50014 82.5003C2.83014 78.5103 3.50014 73.8603 4.49514 69.3503C5.6653 64.0464 7.50014 58.8603 8.49514 54.3503C9.57681 49.4475 10.5001 44.2003 12.1601 39.5153C13.8433 34.765 13.5001 27.8603 14.4951 22.6853C15.3823 18.0712 16.8301 14.5103 17.9901 13.8353C23.5862 10.579 24.5001 22.4803 25.3301 26.6503C26.2888 31.4665 27.5001 35.4803 28.4951 39.4853C29.513 43.5824 31.8201 47.4803 33.4951 51.6503C35.3665 56.3093 36.8201 60.4803 38.3301 64.4853C39.7731 68.3124 41.8201 73.1403 43.3301 77.8153C43.5001 79.1503 43.5001 80.8003 43.3351 81.1553C43.1701 81.5103 42.8401 80.5203 42.5001 79.5003" stroke="#FE92CD" stroke-width="5" stroke-linecap="round"/>
<path d="M9.50014 51.5003H32.5001" stroke="#FE92CD" stroke-width="5" stroke-linecap="round"/>
<path d="M42.5001 15.5003H89.5001" stroke="#FE92CD" stroke-width="5" stroke-linecap="round"/>
<path d="M63.5001 17.5003C63.5001 18.1603 63.5001 29.0603 63.6651 45.5553C63.8301 51.4903 64.1601 52.4803 64.3301 57.2803C64.5001 62.0803 64.5001 70.6603 64.5001 79.5003" stroke="#FE92CD" stroke-width="5" stroke-linecap="round"/>
<path d="M47.5001 80.5003C48.1601 80.5003 56.7501 80.5003 69.9101 80.8303C74.8201 81.1603 76.1401 81.8203 78.1401 82.1603C80.1401 82.5003 82.7801 82.5003 85.5001 82.5003" stroke="#FE92CD" stroke-width="5" stroke-linecap="round"/>
<path d="M122.5 2.50032C122.17 4.82032 121.5 9.48032 119.675 13.4853C117.723 17.7689 115.18 24.4603 113.67 29.4853C112.307 34.0231 110.84 40.1403 109.67 45.3103C107.861 53.3035 107.18 58.1403 105.505 62.6503C103.251 68.7202 101.5 75.4803 99.8401 80.3153C99.5001 81.4903 99.5001 82.4803 99.3351 83.4853C99.1701 84.4903 98.8401 85.4803 96.5001 88.5003" stroke="#FE92CD" stroke-width="5" stroke-linecap="round"/>
<path d="M128.5 16.5003C129.83 17.4903 131.82 22.1403 133.495 27.3153C134.5 36.1103 135.16 50.1403 137.16 58.7753C137.5 64.0703 137.5 73.6403 137.5 83.5003" stroke="#FE92CD" stroke-width="5" stroke-linecap="round"/>
<path d="M129.5 20.5003C136.14 24.4803 143.48 29.8203 147.485 32.6553C151.82 35.7242 153.49 39.8203 155.32 41.3253C158.409 43.8653 159.5 34.5203 160.66 30.5153C161.927 26.1401 163.5 22.5203 164.495 17.6853C164.741 16.4886 165.16 15.5203 165.66 15.5053C169.741 15.3829 168.16 24.4803 168.665 32.8003C169.014 38.5407 170.16 42.4803 172.325 47.3153C173.83 51.4903 174.5 60.7603 175.33 69.6303C175.5 72.7803 175.5 78.0603 175.5 83.5003" stroke="#FE92CD" stroke-width="5" stroke-linecap="round"/>
<path d="M185.5 17.5003C185.83 18.4903 186.16 19.4803 186.495 20.8153C186.83 22.1503 187.16 23.8003 187.33 33.5603C187.5 43.3203 187.5 61.1403 187.5 79.5003" stroke="#FE92CD" stroke-width="5" stroke-linecap="round"/>
<path d="M189.5 82.5003C192.81 82.5003 199.48 81.1803 203.815 79.6703C206.8 79.5003 209.82 78.8403 213.635 77.8403C216.13 77.5003 219.76 77.5003 223.5 77.5003" stroke="#FE92CD" stroke-width="5" stroke-linecap="round"/>
</svg>
