<svg width="326" height="93" viewBox="0 0 326 93" fill="none" xmlns="http://www.w3.org/2000/svg">
<path d="M4.50026 40.2648C7.49026 38.6048 12.1403 37.2648 16.4853 36.7648C17.4962 36.6485 18.4803 37.5848 19.1553 38.5848C20.5698 40.6804 20.8303 43.5848 21.0003 46.0798C21.1576 48.3896 17.5203 49.9248 13.6753 52.0898C12.6646 52.6589 17.4803 53.2648 20.6453 53.9248C25.3932 54.9149 24.8203 62.2448 25.3353 66.2498C25.5974 68.2885 24.1703 70.2548 23.0103 71.9198C20.8603 72.9248 14.5503 73.2648 6.72026 72.7698C3.84026 72.2748 3.18026 71.2848 2.50026 70.2648" stroke="#FE92CD" stroke-width="5" stroke-linecap="round"/>
<path d="M23.5003 17.2648C27.4703 22.8948 34.8203 32.2448 37.1603 37.0798C39.2867 41.4735 38.5003 47.9048 40.1603 56.8698C40.5003 72.7248 39.8403 84.5848 37.8503 87.0798C36.5203 88.2548 34.5403 89.2448 32.5003 90.2648" stroke="#FE92CD" stroke-width="5" stroke-linecap="round"/>
<path d="M61.5003 21.2648V75.2648" stroke="#FE92CD" stroke-width="5" stroke-linecap="round"/>
<path d="M54.5003 18.2648C59.1503 18.2648 64.4803 17.6048 72.6353 17.0998C80.4896 16.6135 89.4903 16.9248 91.1553 18.5848C92.9457 20.3699 92.5003 24.9048 91.3453 29.5648C89.3037 37.8019 80.5203 36.5848 76.5153 37.5948C74.3557 38.1394 71.5203 39.5948 69.6753 40.0948C64.042 41.6215 79.4803 41.2648 83.8153 44.2498C86.7723 46.286 89.1603 48.2548 90.4903 50.5798C92.1129 53.4164 92.5003 59.8848 92.0053 66.8848C91.8338 69.3097 90.5203 69.2648 89.5153 69.4298C84.1903 70.2648 77.8503 70.9248 72.3803 71.9248C68.5603 72.2648 62.6203 72.2648 56.5003 72.2648" stroke="#FE92CD" stroke-width="5" stroke-linecap="round"/>
<path d="M99.5003 38.2648C104.46 38.2648 115.47 38.5948 120.3 39.5898C123.253 40.1981 124.16 43.2548 124.5 45.0848C125.833 52.2555 106.2 49.2448 101.015 53.5798C98.5542 55.6375 99.5003 60.5748 99.9953 64.2398C100.614 68.8204 110.14 66.9248 118.635 67.0998C120.497 67.1382 121.48 66.6048 122.32 65.9398C125.803 63.1826 126.16 56.9648 126.5 45.7798C126.5 54.4448 126.83 63.2548 127.825 64.9198C128.49 65.5948 129.48 65.9248 132.5 66.2648" stroke="#FE92CD" stroke-width="5" stroke-linecap="round"/>
<path d="M154.5 37.2648C151.19 36.9348 143.2 36.2648 138.2 37.7498C129.434 40.3534 134.5 52.5648 134.995 58.2248C135.205 60.627 136.48 61.9048 138.145 63.0798C141.843 65.6897 147.8 66.2648 153.295 65.9348C155.511 65.8018 156.48 64.9448 157.155 64.1098C157.83 63.2748 158.16 62.2848 158.33 61.1148C158.5 59.9448 158.5 58.6248 158.5 57.2648" stroke="#FE92CD" stroke-width="5" stroke-linecap="round"/>
<path d="M167.5 4.26483V66.2648" stroke="#FE92CD" stroke-width="5" stroke-linecap="round"/>
<path d="M169.5 39.2648C171.82 38.6048 176.48 36.6048 182.145 35.2698C186.49 33.9348 189.82 32.6048 192.315 31.6048C193.49 31.2648 194.48 31.2648 195.5 31.2648" stroke="#FE92CD" stroke-width="5" stroke-linecap="round"/>
<path d="M170.5 39.2648C171.49 40.9248 175.48 46.8848 178.655 52.9148C179.808 55.1037 182.16 56.5848 183.985 58.7498C189.82 60.2648 193.49 60.5948 195.98 61.0948C197.48 61.2648 199.46 61.2648 201.5 61.2648" stroke="#FE92CD" stroke-width="5" stroke-linecap="round"/>
<path d="M213.5 45.2648C218.13 45.2648 228.14 44.6048 233.315 43.2698C234.498 42.9646 235.48 42.6048 235.99 39.9598C236.5 37.3148 236.5 32.3648 233.86 29.8148C227.876 24.0343 219.51 27.9248 217.515 29.2548C216.51 29.9248 215.52 30.5848 215.01 31.4198C212.964 34.7702 212.84 40.5648 212.995 57.5348C213.027 60.9606 214.48 61.5848 215.485 62.0898C219.49 63.9248 224.14 65.9248 236.785 65.9348C239.49 65.6048 240.48 64.9448 242.5 64.2648" stroke="#FE92CD" stroke-width="5" stroke-linecap="round"/>
<path d="M250.5 27.2648C250.5 28.5848 250.5 42.4648 250.5 61.9698C250.5 68.2748 250.5 67.2848 250.665 66.2798C250.83 65.2748 251.16 64.2848 251.5 63.2648" stroke="#FE92CD" stroke-width="5" stroke-linecap="round"/>
<path d="M252.5 37.2648C254.82 36.9348 261.46 32.3048 266.155 29.0998C269.349 26.9198 268.5 37.9048 269.495 43.2448C270.5 48.5848 271.16 53.9048 271.665 60.0748C271.83 61.5848 272.16 62.9048 272.5 66.2648" stroke="#FE92CD" stroke-width="5" stroke-linecap="round"/>
<path d="M303.5 31.2648C302.18 29.6048 297.52 28.2648 292.19 27.4348C290.532 27.1765 288.54 27.2648 287.19 27.7598C284.844 28.6201 283.84 31.5848 282.675 34.0798C281.694 36.1824 281.5 44.5248 281.995 55.6898C282.17 59.6222 283.48 59.9248 284.815 60.0948C290.505 60.8193 295.47 62.2648 300.465 61.7698C302.54 61.5643 303.48 60.2848 304.155 59.2798C307.156 54.8117 307.5 47.6248 308.33 42.6198C309.647 34.6803 310.5 26.6448 311.495 20.2848C311.919 17.5759 312.5 12.6348 312.005 6.80483C311.814 4.55791 310.52 3.94483 309.515 3.43983C307.583 2.4688 305.18 2.26483 303.18 2.75983C299.34 3.71029 301.5 17.8448 299.84 29.2098C296.365 53.0024 300.83 56.2548 302.155 58.0848C304.8 59.5848 307.49 60.5948 311.3 61.0948C314.12 61.2648 318.74 61.2648 323.5 61.2648" stroke="#FE92CD" stroke-width="5" stroke-linecap="round"/>
</svg>
