<svg width="462" height="79" viewBox="0 0 462 79" fill="none" xmlns="http://www.w3.org/2000/svg">
<path d="M9.5 22.124V76.124" stroke="#FE92CD" stroke-width="5" stroke-linecap="round"/>
<path d="M2.5 19.124C7.15 19.124 12.48 18.464 20.635 17.959C28.4894 17.4726 37.49 17.784 39.155 19.444C40.9455 21.2291 40.5 25.764 39.345 30.424C37.3034 38.6611 28.52 37.444 24.515 38.454C22.3555 38.9986 19.52 40.454 17.675 40.954C12.0417 42.4807 27.48 42.124 31.815 45.109C34.7721 47.1452 37.16 49.114 38.49 51.439C40.1126 54.2756 40.5 60.744 40.005 67.744C39.8335 70.1689 38.52 70.124 37.515 70.289C32.19 71.124 25.85 71.784 20.38 72.784C16.56 73.124 10.62 73.124 4.5 73.124" stroke="#FE92CD" stroke-width="5" stroke-linecap="round"/>
<path d="M47.5 39.124C52.46 39.124 63.47 39.454 68.3 40.449C71.2529 41.0573 72.16 44.114 72.5 45.944C73.8323 53.1147 54.2 50.104 49.015 54.439C46.5539 56.4967 47.5 61.434 47.995 65.099C48.6137 69.6796 58.14 67.784 66.635 67.959C68.4969 67.9974 69.48 67.464 70.32 66.799C73.8028 64.0418 74.16 57.824 74.5 46.639C74.5 55.304 74.83 64.114 75.825 65.779C76.49 66.454 77.48 66.784 80.5 67.124" stroke="#FE92CD" stroke-width="5" stroke-linecap="round"/>
<path d="M102.5 38.124C99.19 37.794 91.2 37.124 86.2 38.609C77.4337 41.2126 82.5 53.424 82.995 59.084C83.2051 61.4862 84.48 62.764 86.145 63.939C89.8432 66.5489 95.8 67.124 101.295 66.794C103.511 66.661 104.48 65.804 105.155 64.969C105.83 64.134 106.16 63.144 106.33 61.974C106.5 60.804 106.5 59.484 106.5 58.124" stroke="#FE92CD" stroke-width="5" stroke-linecap="round"/>
<path d="M115.5 5.12402V67.124" stroke="#FE92CD" stroke-width="5" stroke-linecap="round"/>
<path d="M117.5 40.124C119.82 39.464 124.48 37.464 130.145 36.129C134.49 34.794 137.82 33.464 140.315 32.464C141.49 32.124 142.48 32.124 143.5 32.124" stroke="#FE92CD" stroke-width="5" stroke-linecap="round"/>
<path d="M118.5 40.124C119.49 41.784 123.48 47.744 126.655 53.774C127.808 55.9629 130.16 57.444 131.985 59.609C137.82 61.124 141.49 61.454 143.98 61.954C145.48 62.124 147.46 62.124 149.5 62.124" stroke="#FE92CD" stroke-width="5" stroke-linecap="round"/>
<path d="M161.5 46.124C166.13 46.124 176.14 45.464 181.315 44.129C182.498 43.8238 183.48 43.464 183.99 40.819C184.5 38.174 184.5 33.224 181.86 30.674C175.875 24.8935 167.51 28.784 165.515 30.114C164.51 30.784 163.52 31.444 163.01 32.279C160.964 35.6294 160.84 41.424 160.995 58.394C161.026 61.8198 162.48 62.444 163.485 62.949C167.49 64.784 172.14 66.784 184.785 66.794C187.49 66.464 188.48 65.804 190.5 65.124" stroke="#FE92CD" stroke-width="5" stroke-linecap="round"/>
<path d="M198.5 28.124C198.5 29.444 198.5 43.324 198.5 62.829C198.5 69.134 198.5 68.144 198.665 67.139C198.83 66.134 199.16 65.144 199.5 64.124" stroke="#FE92CD" stroke-width="5" stroke-linecap="round"/>
<path d="M200.5 38.124C202.82 37.794 209.46 33.164 214.155 29.959C217.348 27.779 216.5 38.764 217.495 44.104C218.5 49.444 219.16 54.764 219.665 60.934C219.83 62.444 220.16 63.764 220.5 67.124" stroke="#FE92CD" stroke-width="5" stroke-linecap="round"/>
<path d="M251.5 32.124C250.18 30.464 245.52 29.124 240.19 28.294C238.531 28.0357 236.54 28.124 235.19 28.619C232.844 29.4793 231.84 32.444 230.675 34.939C229.693 37.0415 229.5 45.384 229.995 56.549C230.169 60.4814 231.48 60.784 232.815 60.954C238.504 61.6785 243.47 63.124 248.465 62.629C250.539 62.4234 251.48 61.144 252.155 60.139C255.156 55.6709 255.5 48.484 256.33 43.479C257.647 35.5395 258.5 27.504 259.495 21.144C259.919 18.4351 260.5 13.494 260.005 7.66402C259.814 5.41711 258.52 4.80402 257.515 4.29902C255.583 3.32799 253.18 3.12402 251.18 3.61902C247.34 4.56948 249.5 18.704 247.84 30.069C244.365 53.8616 248.83 57.114 250.155 58.944C252.8 60.444 255.49 61.454 259.3 61.954C262.12 62.124 266.74 62.124 271.5 62.124" stroke="#FE92CD" stroke-width="5" stroke-linecap="round"/>
<path d="M330.5 59.124C324.86 55.144 316.2 49.144 311.35 44.644C303.6 37.4529 300.18 27.144 298.01 22.974C296.491 20.0557 294.17 18.134 293.67 15.809C293.041 12.886 294.16 9.80402 295.655 7.30902C297.11 4.8801 299.82 3.46402 302.315 2.62902C303.442 2.252 304.48 2.78402 305.32 3.61402C307.185 5.4566 307.5 11.414 306.51 18.739C305.208 28.3705 295.52 29.444 293.34 33.439C287.551 44.0482 292.49 60.784 294.485 62.114C298.827 65.009 310.42 65.124 318.645 61.809C324.16 56.134 326.82 51.484 329.325 47.139C329.83 46.134 330.16 45.144 330.5 42.124" stroke="#FE92CD" stroke-width="5" stroke-linecap="round"/>
<path d="M355.5 56.124C355.5 51.484 358.8 30.944 362.16 17.819C364.155 10.0273 363.5 5.80402 364.16 3.80402C364.457 2.90413 366.14 3.12402 367.15 3.78402C371.413 6.56963 371.82 14.744 373.495 21.269C375.051 27.3288 375.16 33.424 375.83 38.109C377.83 42.114 378.5 45.114 378.665 47.109C378.83 48.114 379.16 49.104 379.5 50.124" stroke="#FE92CD" stroke-width="5" stroke-linecap="round"/>
<path d="M358.5 30.124C358.83 30.124 359.16 30.124 361.64 30.124C364.12 30.124 368.74 30.124 373.5 32.124" stroke="#FE92CD" stroke-width="5" stroke-linecap="round"/>
<path d="M378.5 45.124L379.5 55.124" stroke="#FE92CD" stroke-width="5" stroke-linecap="round"/>
<path d="M395.5 55.124C395.5 45.544 394.84 25.484 394.995 11.344C395.027 8.42197 396.48 7.80402 399.96 7.46402C409.341 6.54744 416.16 8.11402 417.49 10.109C420.223 14.2079 420.5 18.774 419.84 21.769C419.181 24.7588 415.84 26.114 414.345 27.614C409.85 28.454 405.18 29.454 402.685 30.284C401.51 30.784 400.52 31.444 398.5 32.124" stroke="#FE92CD" stroke-width="5" stroke-linecap="round"/>
<path d="M430.5 10.124H459.5" stroke="#FE92CD" stroke-width="5" stroke-linecap="round"/>
<path d="M443.5 10.124C441.5 15.744 440.84 27.104 440.335 36.919C440.17 39.114 439.84 40.104 439.67 42.924C439.5 45.744 439.5 50.364 439.5 55.124" stroke="#FE92CD" stroke-width="5" stroke-linecap="round"/>
<path d="M423.5 55.124H457.5" stroke="#FE92CD" stroke-width="5" stroke-linecap="round"/>
</svg>
