<svg width="472" height="88" viewBox="0 0 472 88" fill="none" xmlns="http://www.w3.org/2000/svg">
<path d="M12.5001 14.5C15.1401 14.5 29.3701 14.5 48.5401 15.325C54.888 15.5982 54.1801 17.8 53.3451 19.145C50.2883 24.0687 45.5201 26.82 39.0251 30.485C33.955 33.346 29.8601 37.48 26.3451 42.315C25.4974 43.4809 24.5201 44.48 27.6401 44.99C37.8965 46.6665 46.8201 47.15 48.9851 50.145C51.8316 54.0829 53.8201 59.14 54.0051 69.13C54.1257 75.6454 44.5201 78.16 39.8551 79.825C35.7998 81.2724 27.5601 82.5 17.2401 81.84C10.2201 79.86 6.84006 77.18 5.51006 74.685C4.84006 73.51 4.18006 72.52 2.50006 70.5" stroke="#FE92CD" stroke-width="5" stroke-linecap="round"/>
<path d="M71.5001 17.5C71.5001 18.82 71.1701 21.15 70.6701 32.395C70.5001 41.99 70.5001 59.48 70.1701 69.315C69.8401 79.15 69.1801 80.8 68.5001 83.5" stroke="#FE92CD" stroke-width="5" stroke-linecap="round"/>
<path d="M65.5001 14.5C76.4001 14.5 98.4801 15.82 103.315 19.815C109.102 24.5967 111.16 30.48 113.325 34.65C117.567 42.8198 113.84 57.8 111.51 62.65C109.116 67.6325 104.86 71.48 97.7001 76.65C87.5101 77.83 83.5201 78.5 76.7051 79.33C73.5501 79.5 68.6001 79.5 63.5001 79.5" stroke="#FE92CD" stroke-width="5" stroke-linecap="round"/>
<path d="M178.5 79.5C174.19 71.54 168.18 61.52 162.355 55.025C158.904 51.1775 156.52 46.52 153.51 42.35C150.275 37.868 147.52 33.52 145.01 29.015C142.687 24.8454 138.52 21.52 136.67 17.35C136.191 16.2693 136.5 14.86 137.325 14.18C141.386 10.8327 150.11 12.5 158.61 15.305C162.435 16.5671 161.5 23.72 161.005 26.94C160.058 33.0998 156.18 36.48 147.535 45.465C142.597 50.597 140.84 56.14 138.84 63.29C136.034 73.3205 139.16 81.49 141.15 82.99C146.257 86.8395 160.06 84.5 169.15 82.18C174.367 80.8485 174.48 73.52 176.495 68.685C176.83 67.51 177.16 66.52 178.155 64.855C179.15 63.19 180.8 60.88 184.5 56.5" stroke="#FE92CD" stroke-width="5" stroke-linecap="round"/>
<path d="M240.5 16.5C240.5 15.84 240.5 13.85 239.675 11.35C237.889 5.93836 222.92 8.50001 215.185 9.66001C212.018 10.135 209.18 12.49 207.18 14.98C204.96 17.7445 206.17 21.82 205.67 31.905C204.435 56.81 205.83 74.49 206.99 76.65C207.669 77.9138 209.14 79.14 210.81 79.985C225.08 81.5 242.5 80.51 242.83 78.515C243.16 77.51 243.82 76.52 244.5 73.5" stroke="#FE92CD" stroke-width="5" stroke-linecap="round"/>
<path d="M245.5 41.5C251.13 42.49 260.48 44.5 265.815 48.315C272.368 53.0012 271.5 69.12 269.355 76.12C268.416 79.1834 262.92 78.5 260.71 77.18C258.5 75.86 258.5 73.22 258.665 71.365C259.208 65.2658 263.82 59.52 265.495 55.515C267.287 51.2308 269.16 46.52 272.155 42.515C272.83 41.51 273.16 40.52 273.825 39.68C274.49 38.84 275.48 38.18 277.5 35.5" stroke="#FE92CD" stroke-width="5" stroke-linecap="round"/>
<path d="M291.5 47.5C291.5 47.83 291.5 48.16 291.665 48.825C291.83 49.49 292.16 50.48 295.135 50.99C298.11 51.5 303.72 51.5 306.61 51.005C309.5 50.51 309.5 49.52 309.665 48.515C309.998 46.4867 310.5 42.53 310.005 37.865C309.819 36.1091 308.52 35.84 306.855 35.67C302.897 35.2659 299.51 35.83 297.35 36.99C291.939 39.8959 291.18 46.14 288.84 51.64C284.984 60.7038 290.16 65.48 292.655 69.155C293.825 70.8787 297.15 71.49 300.475 72.99C303.8 73.5 306.82 72.84 309.15 71.345C310.16 70.51 310.82 69.52 311.5 68.5" stroke="#FE92CD" stroke-width="5" stroke-linecap="round"/>
<path d="M322.5 36.5C326.46 34.51 336.48 31.84 340.155 31.995C344.518 32.179 341.83 40.82 342 43.315C342.157 45.6247 331.92 46.5 325.51 49.65C320.146 52.2861 322.5 62.79 323.16 69.29C323.46 72.2421 327.49 72.16 330.64 73.16C332.724 73.8216 336.1 73.5 337.8 72.51C343.274 69.3224 341.16 61.2 342.495 54.855C343.496 50.0973 345.16 44.86 346.33 40.515C348.035 34.1833 347.82 66.5 350.48 66.83C351.82 67.16 353.14 67.82 354.315 68.325C355.49 68.83 356.48 69.16 359.5 69.5" stroke="#FE92CD" stroke-width="5" stroke-linecap="round"/>
<path d="M356.5 2.5C356.5 11.45 357.16 23.48 357.83 54.045C357.994 61.5438 360.16 63.49 361.655 65.155C363.047 66.7052 368.13 66.5 373.795 65.84C376.83 61.51 377.83 57.85 378.495 54.69C378.83 53.18 379.16 51.86 380.5 50.5" stroke="#FE92CD" stroke-width="5" stroke-linecap="round"/>
<path d="M350.5 30.5C351.82 30.5 353.14 30.5 356.13 30.5C359.12 30.5 363.74 30.5 369.5 28.5" stroke="#FE92CD" stroke-width="5" stroke-linecap="round"/>
<path d="M390.5 28.5C389.84 32.79 389.18 37.08 388.84 44.075C388.5 51.07 388.5 60.64 388.5 70.5" stroke="#FE92CD" stroke-width="5" stroke-linecap="round"/>
<path d="M388.5 15.5C388.5 14.84 389.82 12.52 391.16 9.19C391.18 7.84 389.86 7.18 388.85 7.5C387.84 7.82 387.18 9.14 385.5 11.5" stroke="#FE92CD" stroke-width="5" stroke-linecap="round"/>
<path d="M406.5 28.5C409.83 38.82 410.5 44.8 411.495 50.315C412.293 54.7383 415.16 58.48 416.825 61.99C417.184 62.7472 418.48 62.5 418.99 61.84C421.687 58.3499 420.5 52.86 421.33 48.02C422.439 41.5517 424.82 37.52 428.82 32.685C429.5 31.51 429.5 30.52 429.83 29.02C430.16 27.52 430.82 25.54 431.5 23.5" stroke="#FE92CD" stroke-width="5" stroke-linecap="round"/>
<path d="M444.5 33.5C444.5 34.16 444.5 36.15 445.82 38.65C447.711 42.2316 453.82 39.83 456.48 40.33C457.808 40.5795 459.14 40.5 459.82 38.52C460.5 36.54 460.5 32.58 460.005 30.375C459.51 28.17 458.52 27.84 457.35 27.67C452.21 26.9231 448.18 26.5 445.85 26.995C441.282 27.9656 441.84 35.48 441.335 40.48C441.063 43.172 440.5 49.78 441.16 58.11C441.407 61.2208 443.14 61.82 444.315 62.325C449.81 63.5 455.82 63.83 459.635 64.33C462.13 64.5 465.76 64.5 469.5 64.5" stroke="#FE92CD" stroke-width="5" stroke-linecap="round"/>
</svg>
