<svg width="260" height="80" viewBox="0 0 260 80" fill="none" xmlns="http://www.w3.org/2000/svg">
<path d="M127 28.4952C123.04 28.4952 105.16 28.4952 75.7153 30.3102C62.0158 31.1546 51.2203 35.7552 40.3303 40.7602C29.4403 45.7652 18.8803 52.0352 12.7803 56.4202C6.68034 60.8052 5.36034 63.1152 4.00034 66.4952" stroke="#FE92CD" stroke-width="5" stroke-linecap="round"/>
<path d="M8.00033 44.4952C6.02033 48.4552 3.68033 57.4252 2.50533 68.0902C2.65033 71.8252 4.30033 72.1552 8.94533 72.3252C13.5903 72.4952 21.1803 72.4952 29.0003 72.4952" stroke="#FE92CD" stroke-width="5" stroke-linecap="round"/>
<path d="M124 36.4952C124 36.1652 124 35.8352 124 35.1702C124 33.5152 128.95 28.8652 143.05 20.5602C151.904 15.3454 165.4 10.2752 182.76 6.89017C200.12 3.50517 221.24 2.51517 233.44 2.50017C245.64 2.48517 248.28 3.47517 250.135 5.47017C254.032 9.66085 254.99 19.1052 256.49 31.4002C258.22 45.5791 255.68 56.4652 252.36 61.9552C250.696 64.7081 247.72 66.4552 232.5 68.9602C217.28 71.4652 189.56 74.4352 170.66 75.9652C151.76 77.4952 142.52 77.4952 135.45 75.8452C128.38 74.1952 123.76 70.8952 121.215 67.8752C113.409 58.6115 118.33 47.1852 119.325 43.3552C119.99 41.8352 120.98 41.1752 122.975 40.5052C124.97 39.8352 127.94 39.1752 131 38.4952" stroke="#FE92CD" stroke-width="5" stroke-linecap="round"/>
<path d="M144 36.4952C144 39.1352 144 43.1352 144.33 47.7952C145.32 51.1352 146.33 54.1452 146.83 58.1302C147 60.4652 147 63.4352 147 66.4952" stroke="#FE92CD" stroke-width="5" stroke-linecap="round"/>
<path d="M139 34.4952C143.64 35.1552 150.98 36.4952 156.81 38.4852C158.374 39.0188 159.64 39.8152 160.485 40.6502C166.134 46.2317 160.68 60.8052 158.02 64.3052C155.36 65.4952 153.01 65.8252 151.015 66.3252C150.01 66.4952 149.02 66.4952 148 66.4952" stroke="#FE92CD" stroke-width="5" stroke-linecap="round"/>
<path d="M175 48.4952C175.66 49.8152 176.99 51.4852 178.985 52.1602C181.638 53.0576 182.33 46.8452 182.83 43.6852C183.068 42.1843 183 40.8552 180.855 40.1752C178.71 39.4952 174.42 39.4952 172.21 42.6302C170 45.7652 170 52.0352 170.99 55.9252C171.98 59.8152 173.96 61.1352 176.63 61.8152C179.3 62.4952 182.6 62.4952 186 62.4952" stroke="#FE92CD" stroke-width="5" stroke-linecap="round"/>
<path d="M192 35.4952C192 37.4752 192 45.7552 192.165 56.2602C192.24 61.0381 194.98 38.1752 198.155 35.0052C198.848 34.3138 199.98 34.4952 200.82 34.9902C205.002 37.4546 204 48.7652 204.33 56.6152C204.759 66.8137 206.33 35.5052 207.325 33.6752C207.837 32.7339 208.98 32.1752 210.315 31.8352C211.65 31.4952 213.3 31.4952 214.645 33.4752C215.99 35.4552 216.98 39.4152 217.49 43.6002C218 47.7852 218 52.0752 218 56.4952" stroke="#FE92CD" stroke-width="5" stroke-linecap="round"/>
<path d="M239 30.4952C237.02 29.8352 235.01 29.1652 232.355 30.1502C226.875 32.1832 226 40.7952 226.165 46.7852C226.24 49.4792 226.66 51.4552 228.81 53.1352C230.96 54.8152 234.92 56.1352 238.445 54.3402C246.79 50.0911 248 41.1752 247.505 39.0102C243.68 37.1652 240.67 35.5052 239.51 33.6752C238.68 32.8352 237.36 32.1752 236 31.4952" stroke="#FE92CD" stroke-width="5" stroke-linecap="round"/>
<path d="M13.0003 33.4952C8.00034 49.1352 6.68034 56.4752 5.83534 68.9452C5.64098 71.8133 5.34034 73.1352 7.97534 74.1452C23.6503 76.4952 27.9903 76.8252 30.8103 77.3252C32.6403 77.4952 35.2803 77.4952 38.0003 77.4952" stroke="#FE92CD" stroke-width="5" stroke-linecap="round"/>
</svg>
