<svg width="550" height="92" viewBox="0 0 550 92" fill="none" xmlns="http://www.w3.org/2000/svg">
<path d="M3.1965 52.5C2.5365 51.84 2.1965 49.52 2.8565 46.19C3.40503 43.4224 7.1865 42.84 9.8415 41.84C11.4318 41.241 13.8165 41.5 15.1715 42.16C17.5089 43.2985 17.1965 48.8 16.5365 54.295C15.7598 60.7614 8.8765 62.48 4.0465 68.145C2.4343 70.0359 2.8665 72.82 3.0265 74.82C4.8365 75.5 7.1865 75.17 11.6565 74.67C15.1365 74.5 21.0765 74.5 27.1965 74.5" stroke="#FE92CD" stroke-width="5" stroke-linecap="round"/>
<path d="M22.1965 26.5C24.5165 28.49 29.1765 32.48 32.1865 38.145C34.5021 42.5031 35.8565 47.14 36.0315 71.735C35.8665 77.15 35.5365 78.8 34.7065 81.135C33.8765 83.47 32.5565 86.44 31.1965 89.5" stroke="#FE92CD" stroke-width="5" stroke-linecap="round"/>
<path d="M51.1965 29.5C51.1965 31.48 51.1965 33.82 51.3615 36.315C51.5265 37.49 51.8565 38.48 52.0265 44.765C52.1965 51.05 52.1965 62.6 52.1965 74.5" stroke="#FE92CD" stroke-width="5" stroke-linecap="round"/>
<path d="M52.1965 26.5H80.1965" stroke="#FE92CD" stroke-width="5" stroke-linecap="round"/>
<path d="M55.1965 54.5H76.1965" stroke="#FE92CD" stroke-width="5" stroke-linecap="round"/>
<path d="M89.1965 47.5C90.8565 48.49 92.8565 52.48 94.8565 59.295C95.7501 62.3399 95.1965 67.4 94.5365 70.115C93.8765 72.83 92.5565 73.16 91.8765 70.69C89.8115 63.1893 92.8465 55.85 95.8415 53.185C98.1765 51.84 100.187 50.84 102.182 49.51C103.187 48.84 104.177 48.18 107.197 46.5" stroke="#FE92CD" stroke-width="5" stroke-linecap="round"/>
<path d="M125.197 42.5C122.877 42.83 118.547 44.16 115.552 45.655C112.9 46.9786 112.197 53.45 112.857 61.28C113.105 64.2242 114.837 64.82 116.012 65.49C118.219 66.7486 123.157 67.5 129.652 67.005C132.227 66.8087 133.177 65.52 133.852 64.515C136.349 60.7969 137.197 54.87 136.702 48.875C136.207 46.51 135.217 45.52 134.047 45.01C132.877 44.5 131.557 44.5 130.197 44.5" stroke="#FE92CD" stroke-width="5" stroke-linecap="round"/>
<path d="M145.197 40.5C145.197 41.82 145.197 43.49 145.362 45.815C145.527 47.15 145.857 48.8 146.027 52.785C146.197 56.77 146.197 63.04 146.197 69.5" stroke="#FE92CD" stroke-width="5" stroke-linecap="round"/>
<path d="M146.197 50.5C146.527 48.18 147.197 44.18 147.857 42.18C149.25 37.9577 157.497 40.5 162.662 40.995C164.582 41.1791 164.857 42.48 165.192 43.485C166.197 52.44 165.207 66.48 163.377 69.975C162.537 71.49 161.877 72.48 161.197 74.5" stroke="#FE92CD" stroke-width="5" stroke-linecap="round"/>
<path d="M172.197 17.5C172.197 18.16 172.197 32.69 172.692 55.51C172.879 64.1522 174.177 66.78 176.172 68.14C178.167 69.5 181.137 69.5 183.162 69.005C186.177 67.52 187.857 65.51 189.022 63.515C189.527 62.51 189.857 61.52 190.197 60.5" stroke="#FE92CD" stroke-width="5" stroke-linecap="round"/>
<path d="M171.197 40.5C171.857 40.5 173.517 40.5 176.837 40.005C178.837 39.51 181.477 38.52 183.332 38.01C185.187 37.5 186.177 37.5 187.197 36.5" stroke="#FE92CD" stroke-width="5" stroke-linecap="round"/>
<path d="M206.197 49.5C206.857 49.5 208.517 49.5 210.847 49.005C213.032 48.5406 213.857 45.18 214.857 42.685C215.672 40.6508 214.537 38.18 213.042 36.015C211.808 34.2289 209.207 33.84 207.047 32.84C205.941 32.3281 204.557 32.5 203.382 33.325C192.097 41.2479 200.527 66.49 201.522 67.99C203.177 68.5 205.187 68.83 208.172 69.33C210.167 69.5 213.137 69.5 217.197 67.5" stroke="#FE92CD" stroke-width="5" stroke-linecap="round"/>
<path d="M227.197 33.5C227.197 34.82 227.197 37.15 227.032 40.475C226.867 42.15 226.537 43.8 226.367 48.445C226.197 53.09 226.197 60.68 226.197 68.5" stroke="#FE92CD" stroke-width="5" stroke-linecap="round"/>
<path d="M227.197 47.5C227.857 46.84 228.527 45.18 229.852 42.685C231.455 39.6662 235.847 38.84 239.337 37.84C241.135 37.3246 243.157 37.5 244.177 38.985C244.537 48.48 242.537 54.48 242.692 64.96C243.187 67.16 244.177 67.82 245.197 68.5" stroke="#FE92CD" stroke-width="5" stroke-linecap="round"/>
<path d="M267.197 38.5C266.537 38.5 263.227 38.5 258.397 38.995C252.991 39.549 253.197 47.48 252.367 52.81C252.108 54.4686 252.197 56.46 253.517 57.975C259.447 64.7822 266.177 64.16 270.682 64.005C274.796 63.8634 274.857 56.52 275.362 45.875C275.522 42.4875 276.197 33.58 275.372 22.405C275.124 19.0562 272.897 20.8 272.047 22.145C269.641 25.951 270.197 41.7 272.352 51.65C276.187 56.16 280.177 59.48 283.672 62.81C285.187 64.16 286.177 64.82 289.197 67.5" stroke="#FE92CD" stroke-width="5" stroke-linecap="round"/>
<path d="M340.197 61.5C338.207 60.84 334.217 57.52 328.717 50.03C324.375 44.1179 316.557 40.52 311.547 36.35C309.242 34.432 308.207 31.51 306.542 29.35C304.902 27.2233 305.197 21.87 307.507 16.37C308.657 13.6298 314.437 14.5 316.817 18.13C327.491 34.4109 316.877 41.48 315.037 45.485C312.947 50.0323 309.877 54.48 308.367 58.65C307.964 59.7617 308.197 61.14 309.187 62.315C313.959 67.9789 320.177 67.5 323.672 67.005C329.07 66.2404 331.177 59.52 334.187 55.35C335.517 52.86 337.187 50.51 338.852 48.515C339.527 47.51 339.857 46.52 340.197 44.5" stroke="#FE92CD" stroke-width="5" stroke-linecap="round"/>
<path d="M358.197 17.5C358.197 29.72 359.187 53.49 361.182 55.32C364.8 58.6389 369.837 60.16 376.002 62.16C378.086 62.8363 381.137 62.5 383.162 62.005C389.922 60.3524 390.857 50.52 392.027 45.685C392.857 41.51 394.197 37.52 395.027 28.38C395.197 24.88 395.197 20.26 395.197 15.5" stroke="#FE92CD" stroke-width="5" stroke-linecap="round"/>
<path d="M404.197 16.5H441.197" stroke="#FE92CD" stroke-width="5" stroke-linecap="round"/>
<path d="M423.197 14.5V58.5" stroke="#FE92CD" stroke-width="5" stroke-linecap="round"/>
<path d="M403.197 57.5C403.857 57.5 413.107 57.5 427.927 57.335C436.477 56.84 440.187 55.84 442.182 54.84C443.187 54.5 444.177 54.5 447.197 52.5" stroke="#FE92CD" stroke-width="5" stroke-linecap="round"/>
<path d="M471.197 2.5C471.197 5.15 470.537 10.48 469.867 15.315C469.231 19.9005 467.197 24.14 466.202 30.145C465.367 35.1812 463.877 41.14 462.867 46.81C461.659 53.5889 460.537 58.14 459.867 62.65C459.537 63.82 458.877 65.14 458.537 66.48C458.197 67.82 458.197 69.14 458.197 70.5" stroke="#FE92CD" stroke-width="5" stroke-linecap="round"/>
<path d="M485.197 17.5C485.197 28.74 489.157 51.46 494.182 56.985C495.739 58.6978 500.167 58.5 504.832 57.84C510.061 57.1001 509.857 49.52 511.027 41.385C511.197 36.91 511.197 29.32 511.362 24.915C511.527 20.51 511.857 19.52 512.197 16.5" stroke="#FE92CD" stroke-width="5" stroke-linecap="round"/>
<path d="M523.197 14.5C523.527 16.49 526.837 19.82 530.187 23.65C533.637 27.5947 534.177 32.48 536.192 37.315C538.039 41.7483 539.857 46.48 541.192 50.485C541.527 51.49 541.857 52.48 542.357 53.65C542.857 54.82 543.517 56.14 545.197 59.5" stroke="#FE92CD" stroke-width="5" stroke-linecap="round"/>
<path d="M525.197 58.5C525.857 56.18 528.517 50.2 531.022 45.515C533.185 41.4683 535.177 34.54 537.357 29.515C539.857 25.18 541.857 20.52 545.017 18.175C545.857 17.51 546.517 16.52 547.197 15.5" stroke="#FE92CD" stroke-width="5" stroke-linecap="round"/>
</svg>
