<svg width="243" height="62" viewBox="0 0 243 62" fill="none" xmlns="http://www.w3.org/2000/svg">
<path d="M2.5 14.5C2.5 16.48 2.5 18.82 2.665 21.315C2.83 22.49 3.16 23.48 3.33 29.765C3.5 36.05 3.5 47.6 3.5 59.5" stroke="#FE92CD" stroke-width="5" stroke-linecap="round"/>
<path d="M3.5 11.5H31.5" stroke="#FE92CD" stroke-width="5" stroke-linecap="round"/>
<path d="M6.5 39.5H27.5" stroke="#FE92CD" stroke-width="5" stroke-linecap="round"/>
<path d="M40.5 32.5C42.16 33.49 44.16 37.48 46.16 44.295C47.0536 47.3399 46.5 52.4 45.84 55.115C45.18 57.83 43.86 58.16 43.18 55.69C41.115 48.1893 44.15 40.85 47.145 38.185C49.48 36.84 51.49 35.84 53.485 34.51C54.49 33.84 55.48 33.18 58.5 31.5" stroke="#FE92CD" stroke-width="5" stroke-linecap="round"/>
<path d="M76.5 27.5C74.18 27.83 69.85 29.16 66.855 30.655C64.2034 31.9786 63.5 38.45 64.16 46.28C64.4082 49.2242 66.14 49.82 67.315 50.49C69.5223 51.7486 74.46 52.5 80.955 52.005C83.5304 51.8087 84.48 50.52 85.155 49.515C87.6522 45.7969 88.5 39.87 88.005 33.875C87.51 31.51 86.52 30.52 85.35 30.01C84.18 29.5 82.86 29.5 81.5 29.5" stroke="#FE92CD" stroke-width="5" stroke-linecap="round"/>
<path d="M96.5 25.5C96.5 26.82 96.5 28.49 96.665 30.815C96.83 32.15 97.16 33.8 97.33 37.785C97.5 41.77 97.5 48.04 97.5 54.5" stroke="#FE92CD" stroke-width="5" stroke-linecap="round"/>
<path d="M97.5 35.5C97.83 33.18 98.5 29.18 99.16 27.18C100.553 22.9577 108.8 25.5 113.965 25.995C115.886 26.1791 116.16 27.48 116.495 28.485C117.5 37.44 116.51 51.48 114.68 54.975C113.84 56.49 113.18 57.48 112.5 59.5" stroke="#FE92CD" stroke-width="5" stroke-linecap="round"/>
<path d="M123.5 2.5C123.5 3.16 123.5 17.69 123.995 40.51C124.182 49.1522 125.48 51.78 127.475 53.14C129.47 54.5 132.44 54.5 134.465 54.005C137.48 52.52 139.16 50.51 140.325 48.515C140.83 47.51 141.16 46.52 141.5 45.5" stroke="#FE92CD" stroke-width="5" stroke-linecap="round"/>
<path d="M122.5 25.5C123.16 25.5 124.82 25.5 128.14 25.005C130.14 24.51 132.78 23.52 134.635 23.01C136.49 22.5 137.48 22.5 138.5 21.5" stroke="#FE92CD" stroke-width="5" stroke-linecap="round"/>
<path d="M157.5 34.5C158.16 34.5 159.82 34.5 162.15 34.005C164.336 33.5406 165.16 30.18 166.16 27.685C166.975 25.6508 165.84 23.18 164.345 21.015C163.112 19.2289 160.51 18.84 158.35 17.84C157.244 17.3281 155.86 17.5 154.685 18.325C143.401 26.2479 151.83 51.49 152.825 52.99C154.48 53.5 156.49 53.83 159.475 54.33C161.47 54.5 164.44 54.5 168.5 52.5" stroke="#FE92CD" stroke-width="5" stroke-linecap="round"/>
<path d="M178.5 18.5C178.5 19.82 178.5 22.15 178.335 25.475C178.17 27.15 177.84 28.8 177.67 33.445C177.5 38.09 177.5 45.68 177.5 53.5" stroke="#FE92CD" stroke-width="5" stroke-linecap="round"/>
<path d="M178.5 32.5C179.16 31.84 179.83 30.18 181.155 27.685C182.758 24.6662 187.15 23.84 190.64 22.84C192.439 22.3246 194.46 22.5 195.48 23.985C195.84 33.48 193.84 39.48 193.995 49.96C194.49 52.16 195.48 52.82 196.5 53.5" stroke="#FE92CD" stroke-width="5" stroke-linecap="round"/>
<path d="M218.5 23.5C217.84 23.5 214.53 23.5 209.7 23.995C204.294 24.549 204.5 32.48 203.67 37.81C203.412 39.4686 203.5 41.46 204.82 42.975C210.751 49.7822 217.48 49.16 221.985 49.005C226.099 48.8634 226.16 41.52 226.665 30.875C226.826 27.4875 227.5 18.58 226.675 7.405C226.428 4.05619 224.2 5.8 223.35 7.145C220.945 10.951 221.5 26.7 223.655 36.65C227.49 41.16 231.48 44.48 234.975 47.81C236.49 49.16 237.48 49.82 240.5 52.5" stroke="#FE92CD" stroke-width="5" stroke-linecap="round"/>
</svg>
