<svg width="196" height="71" viewBox="0 0 196 71" fill="none" xmlns="http://www.w3.org/2000/svg">
<path d="M2.5 7.5C2.5 27.73 2.5 47.51 2.995 45.35C4.47681 38.8839 8.82 32.86 11.49 28.515C12.7453 26.4722 14.49 24.84 16.65 24.335C21.7495 23.1428 23.48 31.48 28.15 36.315C29.2264 37.4295 29.82 38.48 30.325 39.65C30.83 40.82 31.16 42.14 31.33 36.88C31.5 31.62 31.5 19.74 31.5 7.5" stroke="#FFF9FC" stroke-width="5" stroke-linecap="round"/>
<path d="M43.5 15.5C47.48 15.5 52.82 15.17 55.15 15.165C56.211 15.1627 56.82 16.48 57.16 17.98C57.5 19.48 57.5 21.46 56.18 22.48C50.6601 26.7454 48.51 26.5 46.68 26.995C45.7388 27.2496 45.18 28.48 44.84 30.475C44.5 32.47 44.5 35.44 46.645 36.97C48.79 38.5 53.08 38.5 55.29 35.365C60.8565 27.4686 57.83 18.18 58.66 16.675C61.2897 11.9068 61.82 30.48 62.665 34.485C62.83 35.49 63.16 36.48 63.825 37.32C64.49 38.16 65.48 38.82 66.5 39.5" stroke="#FFF9FC" stroke-width="5" stroke-linecap="round"/>
<path d="M84.5 15.5C83.84 15.5 79.87 15.5 74.205 15.995C72.1186 16.1773 71.84 17.48 71.67 18.815C71.5 20.15 71.5 21.8 71.995 22.815C73.8271 26.5718 81.14 25.82 85.155 26.995C86.8759 27.4986 86.5 32.14 85.84 36.305C83.86 38.16 79.2 38.5 73.705 38.335C71.51 38.17 70.52 37.84 69.5 37.5" stroke="#FFF9FC" stroke-width="5" stroke-linecap="round"/>
<path d="M106.5 13.5C105.84 13.5 101.87 13.5 96.37 14.49C94.2876 14.8648 94.5 17.46 94.995 18.81C96.5851 23.1467 102.48 23.16 105.325 26.485C106.056 27.3396 106.16 28.48 106.165 29.485C106.17 30.49 105.84 31.48 105.175 32.155C104.51 32.83 103.52 33.16 102.515 33.825C101.51 34.49 100.52 35.48 97.5 34.5" stroke="#FFF9FC" stroke-width="5" stroke-linecap="round"/>
<path d="M117.5 14.5C117.5 17.8 117.5 25.44 119.645 34.44C120.511 38.0751 126.08 37.5 128.62 37.005C131.16 36.51 131.82 35.52 132.325 34.35C133.366 31.9387 133.5 25.22 133.5 18.705C133.5 12.2516 132.5 30.48 132.5 29.85C132.5 27.24 132.5 19.98 132.5 20.035C132.5 20.09 132.5 27.68 132.665 30.765C132.912 35.3893 133.17 16.18 132.505 13.685C131.922 11.4966 131.5 19.41 132.325 33.075C133.15 37.83 134.8 38.16 136.805 38.33C138.81 38.5 141.12 38.5 143.5 38.5" stroke="#FFF9FC" stroke-width="5" stroke-linecap="round"/>
<path d="M143.5 14.5C143.5 18.8 144.82 27.48 145.665 36.465C146.83 41.49 147.5 46.14 148.33 52.96C148.5 56.44 148.5 62.38 148.5 68.5" stroke="#FFF9FC" stroke-width="5" stroke-linecap="round"/>
<path d="M144.5 23.5C145.16 21.51 149.14 18.84 152.655 15.845C153.472 15.1486 154.48 14.84 155.485 14.67C156.49 14.5 157.48 14.5 158.32 15.16C162.333 18.3132 163.5 22.48 165.16 26.98C166.37 30.2605 165.17 33.49 164.34 35.485C163.84 36.49 163.18 37.48 160.365 37.99C157.55 38.5 152.6 38.5 147.5 38.5" stroke="#FFF9FC" stroke-width="5" stroke-linecap="round"/>
<path d="M173.5 2.5C173.5 3.16 173.5 3.82 173.5 8.945C173.5 14.07 173.5 23.64 173.83 29.23C174.16 34.82 174.82 36.14 175.5 37.5" stroke="#FFF9FC" stroke-width="5" stroke-linecap="round"/>
<path d="M175.5 49.5C173.52 50.16 171.54 50.82 171.18 51.16C170.82 51.5 172.14 51.5 173.15 51.995C174.16 52.49 174.82 53.48 174.17 53.99C173.52 54.5 171.54 54.5 169.5 54.5" stroke="#FFF9FC" stroke-width="5" stroke-linecap="round"/>
<path d="M188.5 2.5C188.5 3.82 188.5 7.8 188.335 13.46C188.17 15.82 187.84 17.14 187.67 21.12C187.5 25.1 187.5 31.7 187.5 38.5" stroke="#FFF9FC" stroke-width="5" stroke-linecap="round"/>
<path d="M186.5 47.5C186.5 48.16 186.5 49.82 187.655 51.82C188.81 52.5 191.12 52.5 192.145 51.84C193.17 51.18 192.84 49.86 192.5 48.5" stroke="#FFF9FC" stroke-width="5" stroke-linecap="round"/>
</svg>
