<svg width="912" height="151" viewBox="0 0 912 151" fill="none" xmlns="http://www.w3.org/2000/svg">
<path d="M3.5 58.2479C10.1 56.2679 14.82 53.9279 16.985 51.2679C18.16 48.6079 18.5 59.1279 18.335 78.4479C18.17 85.8879 17.84 88.5279 17.5 91.2479" stroke="#FE92CD" stroke-width="5" stroke-linecap="round"/>
<path d="M2.5 91.2479H35.5" stroke="#FE92CD" stroke-width="5" stroke-linecap="round"/>
<path d="M33.5 30.2479C35.16 31.2379 39.14 36.5479 43.98 46.7029C49.5446 58.3782 51.16 62.2279 51.665 68.8879C52.5 83.1479 51.84 104.238 50.675 106.398C50.17 107.568 49.84 108.888 48.5 111.248" stroke="#FE92CD" stroke-width="5" stroke-linecap="round"/>
<path d="M89.5 30.2479C92.14 30.2479 106.37 30.2479 125.54 31.0729C131.888 31.3461 131.18 33.5479 130.345 34.8929C127.288 39.8166 122.52 42.5679 116.025 46.2329C110.955 49.0938 106.86 53.2279 103.345 58.0629C102.497 59.2288 101.52 60.2279 104.64 60.7379C114.896 62.4144 123.82 62.8979 125.985 65.8929C128.832 69.8307 130.82 74.8879 131.005 84.8779C131.126 91.3932 121.52 93.9079 116.855 95.5729C112.8 97.0202 104.56 98.2479 94.24 97.5879C87.22 95.6079 83.84 92.9279 82.51 90.4329C81.84 89.2579 81.18 88.2679 79.5 86.2479" stroke="#FE92CD" stroke-width="5" stroke-linecap="round"/>
<path d="M148.5 33.2479C148.5 34.5679 148.17 36.8979 147.67 48.1429C147.5 57.7379 147.5 75.2279 147.17 85.0629C146.84 94.8979 146.18 96.5479 145.5 99.2479" stroke="#FE92CD" stroke-width="5" stroke-linecap="round"/>
<path d="M142.5 30.2479C153.4 30.2479 175.48 31.5679 180.315 35.5629C186.102 40.3446 188.16 46.2279 190.325 50.3979C194.567 58.5677 190.84 73.5479 188.51 78.3979C186.116 83.3803 181.86 87.2279 174.7 92.3979C164.51 93.5779 160.52 94.2479 153.705 95.0779C150.55 95.2479 145.6 95.2479 140.5 95.2479" stroke="#FE92CD" stroke-width="5" stroke-linecap="round"/>
<path d="M219.5 35.2479C219.5 42.8479 220.16 58.8879 221.33 64.8929C221.83 69.2379 222.5 75.2079 223.33 83.2029C223.5 87.1779 223.5 94.1079 223.5 101.248" stroke="#FE92CD" stroke-width="5" stroke-linecap="round"/>
<path d="M219.5 33.2479C219.83 35.2379 223.14 39.8879 227.485 45.0629C231.805 50.2083 236.49 53.5779 238.32 53.5829C243.674 53.5975 244.82 43.2679 248.485 37.2729C249.504 35.6063 250.48 33.9479 251.155 33.5929C255.138 31.4979 253.16 45.8879 253.83 59.8579C255.5 75.4979 255.83 93.2379 256.33 95.3979C256.5 96.5679 256.5 97.8879 256.5 99.2479" stroke="#FE92CD" stroke-width="5" stroke-linecap="round"/>
<path d="M288.5 57.2479C286.51 56.5879 281.86 54.5879 270.71 55.2379C267.998 55.396 266.86 58.2079 266.18 60.5479C263.739 68.9488 264.5 75.2079 265.325 81.7029C266.308 89.4401 275.48 90.5679 279.98 92.9079C281.345 93.6175 283.46 93.2479 284.645 92.5879C289.141 90.0835 288.16 81.9479 289.495 77.2629C290.83 72.9279 291.5 66.9479 289.345 62.5929C288.51 61.9179 287.52 61.5879 284.5 60.2479" stroke="#FE92CD" stroke-width="5" stroke-linecap="round"/>
<path d="M320.5 62.2479C319.51 60.9179 315.52 60.2479 310.19 59.4179C308.531 59.1596 306.54 59.2479 305.19 59.7429C298.04 62.3647 303.16 78.8879 305.82 83.3979C307.549 86.3293 311.15 87.5779 314.31 88.0779C315.82 88.2479 317.14 88.2479 318.15 87.7529C319.16 87.2579 319.82 86.2679 321.5 84.2479" stroke="#FE92CD" stroke-width="5" stroke-linecap="round"/>
<path d="M323.5 37.2479C323.5 37.9079 323.5 41.5479 323.335 47.0429C323.17 49.2379 322.84 50.2279 322.67 57.6679C322.5 65.1079 322.5 78.9679 322.5 93.2479" stroke="#FE92CD" stroke-width="5" stroke-linecap="round"/>
<path d="M337.5 68.2479C339.49 68.5779 342.82 69.5779 345.315 69.5829C350.652 69.5936 352.16 62.2679 353.33 58.2629C353.616 57.2845 353.5 56.2679 352.675 55.5929C348.148 51.8888 342.85 52.2479 340.35 52.7429C336.316 53.5416 335.52 60.5679 333.67 67.2079C331.361 75.494 334.49 81.9079 336.485 83.2379C338.48 84.5679 342.47 85.2479 347.465 85.4129C349.49 85.5779 350.48 85.9079 353.5 86.2479" stroke="#FE92CD" stroke-width="5" stroke-linecap="round"/>
<path d="M363.5 34.2479V90.2479" stroke="#FE92CD" stroke-width="5" stroke-linecap="round"/>
<path d="M383.5 55.2479C383.5 56.2379 383.5 57.2279 383.5 63.0179C383.5 68.8079 383.5 79.3679 383.335 85.3029C383.17 91.2379 382.84 92.2279 382.5 93.2479" stroke="#FE92CD" stroke-width="5" stroke-linecap="round"/>
<path d="M379.5 43.2479H381.5" stroke="#FE92CD" stroke-width="5" stroke-linecap="round"/>
<path d="M398.5 50.2479V89.2479" stroke="#FE92CD" stroke-width="5" stroke-linecap="round"/>
<path d="M403.5 59.2479C405.81 56.2679 412.48 50.2679 416.98 47.0929C418.383 46.1032 420.46 45.2679 421.645 45.7479C423.16 48.2079 423.5 61.1379 424.325 77.8029C425.15 83.5779 426.8 83.9079 430.5 84.2479" stroke="#FE92CD" stroke-width="5" stroke-linecap="round"/>
<path d="M462.5 42.2479C462.5 41.5879 461.51 40.9179 458.855 40.4179C454.945 39.6815 451.51 40.9079 449.68 42.4029C445.984 45.422 444.84 50.2279 443.505 55.0629C442.902 57.246 442.5 60.5579 442.995 64.2229C443.296 66.4486 445.83 67.2379 446.825 68.9029C447.818 70.565 456.76 70.2479 467.76 66.1229C479.865 61.5836 471.17 43.9279 470.505 42.4229C467.208 34.9616 470.16 65.2279 470.665 85.8329C470.856 93.6105 472.82 102.188 475.16 110.723C476.453 115.44 477.82 120.888 479.495 125.398C481.354 130.403 481.5 135.228 482.33 139.398C482.561 140.557 482.5 141.888 481.675 142.898C477.894 147.526 469.54 145.908 462.855 146.578C460.331 146.831 456.2 148.248 450.375 147.258C445.324 146.399 443.84 140.928 442.51 138.268C437.386 128.02 442.48 109.608 446.65 103.603C450.648 97.8457 458.8 93.9479 464.15 89.2629C468.588 85.3769 474.14 79.6079 480.145 76.4229C482.48 75.5879 484.49 74.2579 486.485 72.4279C487.49 71.5879 488.48 70.9279 491.5 69.2479" stroke="#FE92CD" stroke-width="5" stroke-linecap="round"/>
<path d="M569.5 88.2479C567.18 85.5979 561.2 78.9479 555.685 74.2629C550.191 69.5961 540.88 60.3079 537.175 53.2679C534.321 47.8455 530.86 41.2879 526.015 32.9429C523.348 28.3484 520.18 23.6079 517.675 19.2629C516.595 17.3893 516.5 15.2579 516.83 13.2629C517.527 9.04646 523.48 7.92788 528.315 5.42288C530.375 4.35542 532.82 3.58788 535.81 2.75288C539.329 1.77024 542.49 3.90788 544.155 5.40288C547.375 8.29408 548.16 13.2279 548.335 25.0329C548.457 33.2802 541.18 38.2279 537.68 42.2329C534.319 46.0789 531.18 52.2079 528.675 57.3979C526.51 61.8833 524.86 68.2079 522.175 73.3979C519.219 79.1108 517.5 84.2279 518.495 89.8929C518.735 91.2581 519.16 92.2279 519.825 92.9029C523.08 96.2068 530.14 95.2479 536.635 96.0779C542.713 96.8546 547.49 95.9179 549.485 94.9229C553.925 92.7083 556.14 86.6079 559.655 80.2729C563.49 72.9379 567.48 66.2679 569.66 61.2679C570.16 59.9279 570.82 58.6079 571.5 56.2479" stroke="#FE92CD" stroke-width="5" stroke-linecap="round"/>
<path d="M597.5 83.2479C597.5 81.2579 598.82 73.9679 602.155 65.7729C604.205 60.7348 605.82 55.2679 611.145 38.3179C614.573 27.4059 619.14 14.9879 622.49 6.76288C624.778 1.14647 626.5 25.5279 628.16 33.7179C630.255 44.0552 631.16 52.8879 633.325 58.2279C634.5 65.2179 635.16 73.2279 635.995 77.8979C636.49 78.9079 637.48 79.5679 639.5 81.2479" stroke="#FE92CD" stroke-width="5" stroke-linecap="round"/>
<path d="M602.5 47.2479C603.16 47.2479 606.8 47.2479 612.295 47.0829C614.49 46.9179 615.48 46.5879 618.135 46.4179C620.79 46.2479 625.08 46.2479 627.5 46.2479" stroke="#FE92CD" stroke-width="5" stroke-linecap="round"/>
<path d="M645.5 40.2479C645.5 40.9079 645.5 55.7679 645.5 73.9729C645.5 86.6922 646.5 56.6079 649.32 51.2679C652.265 45.6914 657.49 43.5879 659.485 43.2479C664.832 42.3365 665.16 51.8879 666.66 56.2329C668.146 60.5386 669.5 64.2279 671.16 68.2329C671.5 70.2279 672.16 72.5679 673.16 75.5579C673.5 77.2279 673.5 79.2079 674.5 81.2479" stroke="#FE92CD" stroke-width="5" stroke-linecap="round"/>
<path d="M689.5 41.2479C689.5 42.5679 689.5 44.2379 689.335 46.5629C688.84 49.5479 688.17 52.2379 687.67 57.3679C687.5 61.5079 687.5 68.7679 687.5 75.2479" stroke="#FE92CD" stroke-width="5" stroke-linecap="round"/>
<path d="M689.5 29.2479C689.5 28.9179 689.5 28.5879 688.345 28.0879C687.19 27.5879 684.88 26.9279 684.35 26.2579C683.82 25.5879 685.14 24.9279 688.5 22.2479" stroke="#FE92CD" stroke-width="5" stroke-linecap="round"/>
<path d="M702.5 41.2479C702.5 43.8879 702.5 55.1479 702.665 70.6429C702.725 76.24 703.16 77.2279 703.33 71.6329C703.871 53.8353 704.82 40.2579 707.645 38.4279C710.577 36.5286 713.49 35.5879 715.485 35.2479C720.415 34.4077 719.16 43.8879 719.665 49.5579C720.553 59.5333 720.83 69.2379 721.33 71.3979C722.026 74.4031 722.82 48.3079 723.83 42.2629C724.197 40.0662 726.82 38.5879 729.315 37.4229C731.418 36.4411 734.48 36.2479 737.645 36.7429C739.83 40.5679 740.5 59.7479 741.66 71.5629C742.16 72.8979 742.82 74.5479 743.5 76.2479" stroke="#FE92CD" stroke-width="5" stroke-linecap="round"/>
<path d="M750.5 36.2479C760.41 36.2479 778.5 37.2379 778.665 39.7279C778.897 43.2352 779.17 46.2379 778.505 48.2329C777.84 50.2279 776.51 51.9079 774.515 53.0729C772.647 54.1635 767.21 54.2479 760.71 57.7129C757.083 59.6462 758.5 68.1079 759.16 71.8429C759.82 75.5779 761.14 75.9079 764.13 76.0779C767.12 76.2479 771.74 76.2479 774.45 75.2579C778.669 73.7165 778.5 60.6779 778.5 52.2829C778.5 65.6679 779.49 78.5779 783.465 79.0779C786.45 79.2479 791.4 79.2479 796.5 79.2479" stroke="#FE92CD" stroke-width="5" stroke-linecap="round"/>
<path d="M797.5 10.2479C795.5 22.5479 794.18 32.5479 793.335 40.8829C792.589 48.2375 791.84 54.8879 793.645 76.9979C795.79 81.2479 800.08 81.2479 802.95 80.9179C805.82 80.5879 807.14 79.9279 808.5 79.2479" stroke="#FE92CD" stroke-width="5" stroke-linecap="round"/>
<path d="M787.5 39.2479C787.83 39.2479 788.16 39.2479 791.795 39.2479C795.43 39.2479 802.36 39.2479 806.425 38.9179C810.49 38.5879 811.48 37.9279 813.5 37.2479" stroke="#FE92CD" stroke-width="5" stroke-linecap="round"/>
<path d="M828.5 37.2479C828.5 39.2379 827.84 47.1879 827.335 57.3829C827.17 59.2379 826.84 60.2279 826.67 63.8729C826.5 67.5179 826.5 73.7879 826.5 80.2479" stroke="#FE92CD" stroke-width="5" stroke-linecap="round"/>
<path d="M826.5 19.2479C827.16 17.9279 828.49 16.9179 829.33 16.2529C829.18 15.9179 827.86 15.5879 825.86 15.4179C823.86 15.2479 821.22 15.2479 818.5 15.2479" stroke="#FE92CD" stroke-width="5" stroke-linecap="round"/>
<path d="M868.5 40.2479C866.51 38.5879 860.87 37.2479 854.71 38.0729C850.174 38.6804 849.17 43.2379 848.505 45.3979C844.739 57.6308 848.16 77.2379 849.82 78.9029C853.323 82.4163 858.48 82.5679 864.31 82.5879C871.269 82.6117 870.5 69.6279 871.33 62.7779C872.106 56.3725 870.84 51.2579 869.18 49.0979C868.18 47.9279 866.86 46.6079 865.685 45.7629C864.51 44.9179 863.52 44.5879 862.5 44.2479" stroke="#FE92CD" stroke-width="5" stroke-linecap="round"/>
<path d="M888.5 33.2479C888.5 40.5179 887.84 55.8879 887.335 64.5479C887.17 66.5679 886.84 67.8879 886.67 70.3829C886.5 72.8779 886.5 76.5079 886.5 80.2479" stroke="#FE92CD" stroke-width="5" stroke-linecap="round"/>
<path d="M888.5 41.2479C890.49 41.2479 894.48 39.9279 900.145 36.5929C901.442 35.8294 902.48 35.5879 903.155 36.2429C907.327 40.2908 905.16 47.2279 905.665 62.8529C906.5 69.5679 907.82 74.2279 908.665 79.8929C908.83 81.2379 909.16 82.2279 909.5 84.2479" stroke="#FE92CD" stroke-width="5" stroke-linecap="round"/>
</svg>
