<svg width="253" height="117" viewBox="0 0 253 117" fill="none" xmlns="http://www.w3.org/2000/svg">
<path d="M2.5 20.5C2.5 22.82 3.82 32.1 4.665 43.795C4.83 46.15 5.16 47.8 5.33 51.95C5.5 56.1 5.5 62.7 5.5 69.5" stroke="#FE92CD" stroke-width="5" stroke-linecap="round"/>
<path d="M6.5 21.5C8.15 24.48 13.48 29.16 18.645 31.655C24.6936 34.5768 26.49 38.49 28.155 39.165C32.6454 40.9855 30.82 29.86 33.325 25.515C34.4052 23.6414 35.16 21.18 36.655 18.685C37.3959 17.4485 38.48 16.52 39.32 17.165C45.3741 21.8137 42.82 31.14 44.33 36.975C44.83 44.82 45.5 56.74 46.33 64.485C46.5 65.49 46.5 66.48 48.5 68.5" stroke="#FE92CD" stroke-width="5" stroke-linecap="round"/>
<path d="M58.5 33.5C58.17 36.15 57.5 44.78 56.67 50.65C56.5045 51.8206 56.5 53.14 56.995 54.15C57.9785 56.1567 60.16 57.49 61.655 59.155C63.0469 60.7052 66.81 60.5 70.31 60.005C74.517 59.41 73.5 46.57 73.5 36.895C73.5 35.2662 74.5 49.74 75.33 60.625C76.5368 76.4519 76.5 96.32 75.175 108.32C74.6572 113.01 65.86 112.82 61.35 113.665C58.8547 114.133 52.55 114.5 45.05 113.345C42.2832 112.919 42.5 109.88 42.665 108.195C43.1443 103.301 50.78 96.22 58.31 88.855C63.1839 84.0879 69.14 82.84 73.65 80.675C79.15 78.18 83.82 74.84 86.15 73.345C87.16 72.51 87.82 71.52 89.5 68.5" stroke="#FE92CD" stroke-width="5" stroke-linecap="round"/>
<path d="M128.5 9.5C123.87 9.5 114.52 10.82 110.68 13.655C108.779 15.0581 108.5 21.12 108.995 28.285C109.218 31.5132 118.1 31.5 124.98 33.655C132.036 35.865 136.8 41.8 141.32 45.82C143.384 47.656 143.5 50.82 143.17 53.315C142.858 55.6751 140.51 57.49 138.185 59.32C133.165 63.2712 127.52 62.82 115.215 63.335C112.51 63.17 111.52 62.84 111.01 61.02C110.5 59.2 110.5 55.9 110.5 52.5" stroke="#FE92CD" stroke-width="5" stroke-linecap="round"/>
<path d="M151.5 6.5C151.5 8.82 152.82 13.48 153.665 32.425C154.16 37.48 154.5 45.43 154.665 56.425C154.83 60.49 155.16 61.48 155.5 63.5" stroke="#FE92CD" stroke-width="5" stroke-linecap="round"/>
<path d="M155.5 33.5C157.49 33.17 162.14 31.84 166.485 30.34C170.82 27.84 174.16 25.51 174.335 24.505C173.85 24.49 172.2 25.48 170.5 26.5" stroke="#FE92CD" stroke-width="5" stroke-linecap="round"/>
<path d="M156.5 33.5C158.82 34.16 162.82 37.48 166.485 42.81C169.83 49.49 170.5 53.48 171.495 57.65C171.83 58.82 172.16 60.14 173.5 61.5" stroke="#FE92CD" stroke-width="5" stroke-linecap="round"/>
<path d="M188.5 27.5V60.5" stroke="#FE92CD" stroke-width="5" stroke-linecap="round"/>
<path d="M185.5 9.5C185.83 9.5 186.16 9.5 186.99 9.5C187.82 9.5 189.14 9.5 190.5 10.5" stroke="#FE92CD" stroke-width="5" stroke-linecap="round"/>
<path d="M188.5 7.5V11.5" stroke="#FE92CD" stroke-width="5" stroke-linecap="round"/>
<path d="M201.5 3.5C201.5 12.43 202.82 29.14 203.665 43.445C203.83 46.49 204.16 47.48 204.33 49.97C204.5 52.46 204.5 56.42 204.5 60.5" stroke="#FE92CD" stroke-width="5" stroke-linecap="round"/>
<path d="M216.5 2.5C216.5 3.82 216.5 6.81 216.83 11.135C217.16 13.15 217.82 14.8 218.16 23.075C218.5 31.35 218.5 46.2 218.5 61.5" stroke="#FE92CD" stroke-width="5" stroke-linecap="round"/>
<path d="M245.5 33.5C244.18 33.5 240.86 33.5 236.53 33.995C234.78 34.195 234.18 35.48 233.84 36.815C233.5 38.15 233.5 39.8 234.325 40.65C238.294 44.7393 244.48 45.48 246.825 49.155C247.867 50.7873 249.83 51.49 250.33 53.485C250.578 54.4737 250.5 55.48 250.005 55.99C247.17 57.49 241.55 59.5 233.885 58.84C231.17 58.18 230.84 56.86 230.5 53.5" stroke="#FE92CD" stroke-width="5" stroke-linecap="round"/>
</svg>
